<?xml version="1.0" standalone="no"?>
<!DOCTYPE svg PUBLIC "-//W3C//DTD SVG 20010904//EN"
 "http://www.w3.org/TR/2001/REC-SVG-20010904/DTD/svg10.dtd">
<svg version="1.0" xmlns="http://www.w3.org/2000/svg"
 width="220.000000pt" height="49.000000pt" viewBox="0 0 220.000000 49.000000"
 preserveAspectRatio="xMidYMid meet">

<g transform="translate(0.000000,49.000000) scale(0.100000,-0.100000)"
fill="#000000" stroke="none">
<path d="M402 437 c-79 -29 -141 -111 -142 -186 0 -54 36 -117 88 -154 41 -28
56 -32 122 -35 91 -3 149 22 193 84 53 76 49 157 -13 227 -61 69 -162 95 -248
64z m4 -114 c10 -23 14 -51 10 -73 -6 -37 -38 -72 -60 -64 -35 13 -48 112 -20
152 24 34 52 28 70 -15z m142 7 c28 -55 -8 -161 -50 -145 -38 15 -49 122 -17
161 18 21 51 13 67 -16z"/>
<path d="M1430 345 c-15 -18 -5 -35 21 -35 12 0 19 7 19 19 0 24 -25 34 -40
16z"/>
<path d="M1510 230 c0 -103 1 -110 20 -110 11 0 20 5 20 12 0 9 3 9 12 0 22
-22 75 -14 97 14 57 72 -13 175 -90 134 -17 -10 -19 -7 -19 25 0 28 -4 35 -20
35 -19 0 -20 -7 -20 -110z m125 -14 c8 -24 6 -31 -14 -47 -40 -33 -85 8 -62
57 16 36 62 30 76 -10z"/>
<path d="M824 296 c-73 -73 -24 -176 82 -176 47 0 94 45 94 89 0 31 0 31 -55
31 -48 0 -55 -2 -55 -20 0 -16 7 -20 37 -20 35 0 36 0 18 -20 -22 -24 -77 -27
-96 -4 -20 24 -16 84 6 100 22 16 71 19 80 4 8 -13 55 -13 55 -1 0 21 -54 51
-92 51 -32 0 -47 -7 -74 -34z"/>
<path d="M1910 310 c0 -11 -4 -20 -10 -20 -5 0 -10 -9 -10 -20 0 -11 5 -20 10
-20 6 0 10 -25 10 -55 0 -43 4 -56 19 -65 33 -17 61 -12 61 10 0 13 -7 20 -20
20 -17 0 -20 7 -20 45 0 38 3 45 20 45 13 0 20 7 20 20 0 13 -7 20 -20 20 -13
0 -20 7 -20 20 0 13 -7 20 -20 20 -13 0 -20 -7 -20 -20z"/>
<path d="M1049 261 c-56 -57 -23 -141 56 -141 87 0 120 116 44 155 -42 22 -67
18 -100 -14z m96 -45 c8 -24 6 -31 -14 -47 -26 -21 -55 -12 -66 21 -18 57 60
84 80 26z"/>
<path d="M1252 283 c-17 -7 -42 -57 -42 -86 0 -39 36 -77 74 -77 17 0 38 6 45
12 10 11 12 7 9 -17 -2 -25 -8 -31 -32 -33 -16 -2 -33 1 -39 7 -14 14 -47 14
-47 1 0 -23 41 -50 76 -50 74 0 94 35 94 162 0 61 -3 80 -15 84 -8 4 -21 1
-28 -4 -8 -7 -18 -7 -27 -2 -16 10 -47 12 -68 3z m76 -45 c36 -36 -4 -101 -48
-78 -23 12 -28 75 -7 83 22 9 43 7 55 -5z"/>
<path d="M1427 284 c-4 -4 -7 -43 -7 -86 0 -77 0 -78 25 -78 26 0 26 0 23 82
-2 65 -6 83 -18 86 -9 1 -19 0 -23 -4z"/>
<path d="M1729 261 c-27 -28 -31 -37 -26 -69 8 -47 38 -72 87 -72 47 0 80 36
80 85 0 44 -27 74 -72 82 -32 5 -41 1 -69 -26z m89 -23 c18 -18 14 -53 -7 -72
-29 -26 -61 -6 -61 38 0 18 3 36 7 39 11 11 48 8 61 -5z"/>
</g>
</svg>
